<svg width="119" height="119" viewBox="0 0 119 119" fill="none" xmlns="http://www.w3.org/2000/svg">
<line x1="61" y1="114" x2="61" y2="67" stroke="black" stroke-width="22"/>
<path d="M46 57C46 51.4772 50.4772 47 56 47H66C71.5228 47 76 51.4772 76 57V67C76 72.5228 71.5228 77 66 77H56C50.4772 77 46 72.5228 46 67V57Z" fill="black"/>
<line x1="61" y1="114" x2="61" y2="67" stroke="black" stroke-width="22"/>
<path d="M46 57C46 51.4772 50.4772 47 56 47H66C71.5228 47 76 51.4772 76 57V67C76 72.5228 71.5228 77 66 77H56C50.4772 77 46 72.5228 46 67V57Z" fill="black"/>
</svg>
