<svg width="119" height="119" viewBox="0 0 119 119" fill="none" xmlns="http://www.w3.org/2000/svg">
<line x1="5" y1="61" x2="52" y2="61" stroke="black" stroke-width="22"/>
<path d="M62 46C67.5228 46 72 50.4772 72 56V66C72 71.5228 67.5228 76 62 76H52C46.4772 76 42 71.5228 42 66V56C42 50.4772 46.4772 46 52 46L62 46Z" fill="black"/>
<line x1="5" y1="61" x2="52" y2="61" stroke="black" stroke-width="22"/>
<path d="M62 46C67.5228 46 72 50.4772 72 56V66C72 71.5228 67.5228 76 62 76H52C46.4772 76 42 71.5228 42 66V56C42 50.4772 46.4772 46 52 46L62 46Z" fill="black"/>
</svg>
