<svg width="119" height="119" viewBox="0 0 119 119" fill="none" xmlns="http://www.w3.org/2000/svg">
<line x1="58" y1="5" x2="58" y2="52" stroke="black" stroke-width="22"/>
<path d="M73 62C73 67.5228 68.5228 72 63 72H53C47.4772 72 43 67.5228 43 62V52C43 46.4772 47.4772 42 53 42H63C68.5228 42 73 46.4772 73 52V62Z" fill="black"/>
<line x1="58" y1="5" x2="58" y2="52" stroke="black" stroke-width="22"/>
<path d="M73 62C73 67.5228 68.5228 72 63 72H53C47.4772 72 43 67.5228 43 62V52C43 46.4772 47.4772 42 53 42H63C68.5228 42 73 46.4772 73 52V62Z" fill="black"/>
</svg>
