<svg width="119" height="119" viewBox="0 0 119 119" fill="none" xmlns="http://www.w3.org/2000/svg">
<line x1="114" y1="58" x2="67" y2="58" stroke="black" stroke-width="22"/>
<path d="M57 73C51.4772 73 47 68.5228 47 63V53C47 47.4772 51.4772 43 57 43H67C72.5228 43 77 47.4772 77 53V63C77 68.5228 72.5228 73 67 73H57Z" fill="black"/>
<line x1="114" y1="58" x2="67" y2="58" stroke="black" stroke-width="22"/>
<path d="M57 73C51.4772 73 47 68.5228 47 63V53C47 47.4772 51.4772 43 57 43H67C72.5228 43 77 47.4772 77 53V63C77 68.5228 72.5228 73 67 73H57Z" fill="black"/>
</svg>
